<?xml version="1.0" encoding="UTF-8" standalone="no"?>
<!-- Created with Inkscape (http://www.inkscape.org/) -->

<svg
   width="1024mm"
   height="1024mm"
   viewBox="0 0 1024 1024"
   version="1.1"
   id="svg1"
   inkscape:version="1.3 (0e150ed6c4, 2023-07-21)"
   sodipodi:docname="travel.svg"
   inkscape:export-filename="..\..\Projects\Roots\Sources\Eters\Eters\Client\wwwroot\Images\Logo.jpg"
   inkscape:export-xdpi="12.7"
   inkscape:export-ydpi="12.7"
   xmlns:inkscape="http://www.inkscape.org/namespaces/inkscape"
   xmlns:sodipodi="http://sodipodi.sourceforge.net/DTD/sodipodi-0.dtd"
   xmlns="http://www.w3.org/2000/svg"
   xmlns:svg="http://www.w3.org/2000/svg">
  <sodipodi:namedview
     id="namedview1"
     pagecolor="#ffffff"
     bordercolor="#000000"
     borderopacity="0"
     inkscape:showpageshadow="2"
     inkscape:pageopacity="0.0"
     inkscape:pagecheckerboard="false"
     inkscape:deskcolor="#d1d1d1"
     inkscape:document-units="mm"
     inkscape:zoom="0.090532934"
     inkscape:cx="-541.2395"
     inkscape:cy="1861.2011"
     inkscape:window-width="1920"
     inkscape:window-height="1009"
     inkscape:window-x="-8"
     inkscape:window-y="-8"
     inkscape:window-maximized="1"
     inkscape:current-layer="g3796" />
  <defs
     id="defs1">
    <linearGradient
       id="linearGradient3802"
       y2="236.89999"
       gradientUnits="userSpaceOnUse"
       x2="261.75"
       y1="160.57001"
       x1="68.287003"
       inkscape:collect="always">
      <stop
         id="stop3772"
         style="stop-color:#ffffff"
         offset="0" />
      <stop
         id="stop3774"
         style="stop-color:#ffffff;stop-opacity:0"
         offset="1" />
    </linearGradient>
  </defs>
  <g
     inkscape:label="Layer 1"
     inkscape:groupmode="layer"
     id="layer1">
    <g
       id="g1"
       transform="matrix(11.640927,0,0,11.640996,-2686.2399,-1903.3816)">
      <g
         id="g3796"
         transform="matrix(-0.26458333,0,0,0.26458333,314.69316,-30.994602)"
         style="fill:#0099ff;fill-opacity:1">
        <ellipse
           id="path2985"
           style="fill:#0099ff;fill-opacity:1"
           transform="matrix(0.77206,0,0,0.76642,-56.353,476.92)"
           cx="268.57144"
           cy="553.79077"
           rx="194.28572"
           ry="195.71428" />
        <ellipse
           id="path3000"
           style="fill:#0099ff;stroke:url(#linearGradient3802);stroke-width:7.9987;fill-opacity:1"
           transform="matrix(1.2281,0,0,1.2727,-40.228,697)"
           cx="155.71428"
           cy="160.57143"
           rx="81.428574"
           ry="78.571426" />
        <g
           id="layer1-4"
           style="fill:#ff5800;fill-opacity:1"
           inkscape:transform-center-x="7.0118004"
           inkscape:transform-center-y="-5.2210693"
           transform="matrix(-0.11031,0.15085,-0.15085,-0.11031,307.31,802.86)"
           inkscape:label="Camada 1">
          <path
             id="rect3052"
             d="m 385.17,19.606 c -12.956,0 -19.174,42.81 -21.377,62.881 -0.45814,6.0887 -0.97291,11.62 -0.97291,17.301 v 60.503 c -0.13431,3.447 -0.73266,4.4038 -2.7242,6.1388 l -46.715,40.696 c -3.1876,2.2042 -7.3352,2.1224 -7.018,-5.4535 v -5.4088 c 0,-2.9806 -2.3835,-5.4088 -5.3641,-5.4088 h -6.7051 c -2.9806,0 -5.4088,2.4282 -5.4088,5.4088 v 31.72 c 0.0157,0.9701 -0.15769,1.0512 -0.84818,1.6652 l -44.299,39.387 c -4.5365,3.158 -6.1986,0.0596 -6.4369,-5.4982 v -9.8788 c 0,-2.9806 -2.3835,-5.4088 -5.3641,-5.4088 h -6.7051 c -2.9806,0 -5.4088,2.4282 -5.4088,5.4088 v 32.855 c -0.003,0.41191 -0.17177,0.45043 -0.35881,0.66367 l -47.5,40.99 c -3.0254,3.8715 -4.8184,5.639 -4.6936,12.203 l -0.16908,18.425 c -0.38261,2.5077 1.9576,3.506 3.6011,2.7174 0,0 81.135,-50.093 112.25,-63.828 31.118,-13.735 72.594,-23.155 72.594,-23.155 3.1984,-0.77396 6.0579,-0.86459 7.2862,2.5479 v 138.61 c 0.0822,16.545 6.3324,26.555 0,32.497 l -51.723,50.269 c -3.1409,3.3487 -4.9535,6.212 -5.3209,11.623 l 0.0775,5.7259 c 0.17422,2.6789 1.1804,4.0556 3.6345,3.7399 l 66.157,-16.266 c 1.7351,-0.54805 3.1136,-0.36124 4.3312,1.3216 l 6.7566,14.884 8.3025,-15.269 c 1.147,-1.6353 3.3026,-2.4137 4.9265,-1.8312 20.407,4.8326 40.813,9.6652 61.22,14.498 2.6255,0.31568 4.754,0.26075 5.0902,-3.2619 v -8.7427 c -1.3742,-6.0307 -4.8403,-8.8403 -8.4759,-12.469 l -51.929,-44.221 c -4.8577,-4.9235 -0.0429,-15.323 1.6092,-32.006 v -137.01 l 0.0446,-0.0446 h 0.0446 v -0.0446 h 0.0446 v -0.0446 h 0.0446 v -0.0446 h 0.0446 c 0.0402,-0.19235 0.0865,-0.39686 0.13403,-0.58111 0.0473,-0.18425 0.1233,-0.36115 0.1788,-0.53641 0.0555,-0.17527 0.11458,-0.32632 0.1788,-0.4917 0.0642,-0.16539 0.10499,-0.33709 0.1788,-0.49171 0.0738,-0.15461 0.13918,-0.30406 0.22351,-0.447 0.0842,-0.1429 0.17275,-0.27191 0.2682,-0.40231 0.0954,-0.13045 0.20549,-0.24064 0.3129,-0.3576 0.10743,-0.11701 0.23745,-0.25499 0.35761,-0.35761 0.12015,-0.1027 0.22391,-0.18079 0.3576,-0.2682 0.13374,-0.0874 0.29902,-0.19691 0.44701,-0.2682 0.148,-0.0712 0.28391,-0.12459 0.447,-0.1788 0.16308,-0.0544 0.35743,-0.0978 0.53641,-0.13403 0.17897,-0.0363 0.34078,-0.0718 0.5364,-0.0894 0.19564,-0.0176 0.41274,-0.003 0.62581,0 0.21308,10e-4 0.43921,0.022 0.67051,0.0446 0.2313,0.0226 0.4649,0.0453 0.71521,0.0894 0,0 37.656,8.1667 69.42,21.59 31.764,13.4233 116.47,64.122 116.47,64.122 1.9402,0.39708 3.5766,0.10198 3.8233,-1.8005 v -17.129 c 0.11215,-4.595 -2.6072,-8.6787 -4.6042,-10.505 l -46.496,-41.14 c -1.6018,-1.9478 -1.959,-2.322 -2.0036,-3.4734 v -32.54 c 0,-2.9806 -2.4282,-5.4088 -5.4088,-5.4088 h -6.7051 c -2.9806,0 -5.3641,2.4282 -5.3641,5.4088 v 9.8788 c 0.52057,5.8772 -1.0437,8.0537 -4.6936,5.2747 l -45.61,-39.17 c -1.0202,-0.87224 -1.2586,-0.91239 -1.2459,-1.7629 v -31.625 c 0,-2.9806 -2.4282,-5.4088 -5.4088,-5.4088 h -6.7051 c -2.9806,0 -5.3641,2.4282 -5.3641,5.4088 v 5.4088 c 0.75793,7.533 -4.1895,9.0425 -7.5097,5.4088 l -46.401,-40.749 c -2.1631,-1.9524 -2.3669,-3.1493 -2.5904,-5.8752 v -60.668 c -0.14,-5.991 -0.46,-12.717 -1.12,-18.194 -2.7,-21.249 -10.94,-67.101 -21.18,-61.981 z"
             sodipodi:nodetypes="cccccccssssccccsssscccccczccccccccccccccccccccccccccccccccsccccccccsscsczccccccssssccccssssccccccsc"
             style="fill:#ff5800;fill-opacity:1;fill-rule:evenodd"
             inkscape:connector-curvature="0" />
        </g>
      </g>
      <path
         id="path244"
         style="fill:#ffffff;stroke-width:0.264583"
         inkscape:connector-curvature="0"
         d="m 275.52166,191.6364 c -4.236,-0.20805 -8.2992,1.24484 -11.4393,4.09231 -3.1445,2.85035 -4.989,6.75137 -5.1969,10.98444 -0.208,4.23598 1.2448,8.29918 4.0952,11.44085 2.8459,3.14139 6.7469,4.98554 10.9831,5.1935 8.7461,0.42955 16.205,-6.33386 16.6344,-15.07701 0.4293,-8.74289 -6.331,-16.20494 -15.077,-16.63436 z m 12.5468,16.51 c -0.073,1.48211 -0.3893,2.89454 -0.9007,4.20211 -1.0651,-0.13871 -2.1161,-0.31464 -3.1531,-0.53083 1.0638,-2.58258 1.4271,-5.41338 1.0241,-8.2558 -0.3842,-2.70377 -1.4372,-5.1554 -2.9615,-7.20698 3.806,2.51401 6.2307,6.91435 5.9912,11.79168 z m -10.1817,-11.1215 c -2.6092,2.99641 -4.8361,6.32698 -6.6032,9.9269 -1.4947,-0.86624 -2.9334,-1.81925 -4.3111,-2.84956 1.1236,-2.13545 2.8083,-3.93091 4.9265,-5.20356 1.8825,-1.134 3.9349,-1.74117 5.9878,-1.87381 z m -7.6568,12.24307 c -1.127,2.66594 -2.0104,5.46523 -2.6154,8.36903 -0.093,-0.141 -0.1845,-0.28498 -0.2714,-0.43026 -1.8375,-3.05383 -2.3737,-6.6429 -1.5143,-10.09677 0.048,-0.19929 0.1043,-0.38907 0.1608,-0.5879 1.3597,0.99152 2.7746,1.90849 4.2404,2.74611 z m 0.9696,9.7364 c -0.4321,0.0622 -0.8629,0.0971 -1.2913,0.11698 0.5542,-3.01096 1.4194,-5.90497 2.564,-8.65346 2.4638,1.23074 5.052,2.24623 7.7457,3.02128 -0.075,0.10244 -0.1499,0.21247 -0.2278,0.31779 -2.1426,2.84956 -5.262,4.69265 -8.7905,5.19721 z m 2.317,-10.84554 c 1.7787,-3.6494 4.0568,-7.00484 6.7445,-9.99437 1.163,1.66259 1.9649,3.6076 2.2691,5.74966 0.358,2.52505 0,5.03608 -1.0183,7.30541 -2.789,-0.75552 -5.4639,-1.78739 -7.9952,-3.0607 z m -7.7319,-10.55079 c 2.6403,-2.39601 6.0536,-3.61712 9.6139,-3.44223 0.8045,0.0395 1.5902,0.15544 2.3488,0.32912 -2.4545,0.15536 -4.9067,0.87783 -7.1544,2.23038 -2.3791,1.43098 -4.2989,3.41657 -5.629,5.76951 -0.6171,-0.5215 -1.2199,-1.05744 -1.8097,-1.61399 0.6902,-1.20925 1.5705,-2.31362 2.6303,-3.27263 z m -4.3662,9.22867 c 0.059,-1.21137 0.2826,-2.38747 0.6514,-3.50943 0.5849,0.53205 1.1825,1.04955 1.7945,1.55411 -0.191,0.52427 -0.3569,1.06338 -0.4963,1.61596 -0.68,2.735 -0.6205,5.53615 0.1351,8.17642 -1.487,-2.31825 -2.2224,-5.03158 -2.0847,-7.83722 z m 13.0191,13.98799 c 3.003,-1.0138 5.6335,-2.9038 7.5785,-5.49619 0.2854,-0.38013 0.5532,-0.77174 0.802,-1.17491 1.0303,0.22797 2.0699,0.42154 3.1248,0.58251 -2.447,3.76687 -6.7281,6.2021 -11.5055,6.08886 z" />
    </g>
  </g>
</svg>
